<svg version="1.1" id="Layer_1" xmlns="http://www.w3.org/2000/svg" xmlns:xlink="http://www.w3.org/1999/xlink" x="0px" y="0px"
	 width="100%" viewBox="0 0 175 155" enable-background="new 0 0 175 155" xml:space="preserve">
<path fill="#010101" opacity="1.000000" stroke="none" 
	d="
M111.000000,156.000000 
	C74.000008,156.000000 37.500008,156.000000 1.000010,156.000000 
	C1.000007,104.333344 1.000007,52.666687 1.000003,1.000024 
	C59.333317,1.000016 117.666634,1.000016 175.999969,1.000008 
	C175.999969,52.666641 175.999969,104.333282 175.999985,155.999969 
	C154.500000,156.000000 133.000000,156.000000 111.000000,156.000000 
M58.767700,46.720238 
	C56.840443,47.708088 54.913185,48.695934 52.278229,49.835804 
	C47.324394,54.170883 41.560184,57.878895 37.606689,62.988041 
	C31.679056,70.648399 34.466499,78.504799 43.443817,82.140953 
	C45.997513,83.175301 46.816422,84.528267 46.048630,87.138359 
	C43.814377,94.733673 45.043228,102.251617 47.299316,109.530006 
	C51.929455,124.467361 63.875465,125.951614 72.078575,115.561844 
	C72.241226,115.355835 72.607803,115.310814 73.308510,115.000710 
	C74.285423,116.899788 74.775520,119.567276 76.347122,120.619629 
	C84.439133,126.038124 93.063187,130.331741 103.265472,129.208664 
	C110.208000,128.444427 114.153458,123.361412 113.378677,116.364922 
	C113.116432,113.996735 112.569633,111.660042 112.147011,109.275856 
	C125.730881,109.066475 133.867004,101.289711 139.434616,90.451630 
	C142.774963,83.949226 139.952438,77.896637 133.187836,75.006050 
	C131.461121,74.268219 129.591400,73.865074 127.341843,73.170616 
	C128.390762,71.508408 129.757904,70.309311 129.878876,68.995468 
	C130.758362,59.443756 130.412399,49.965042 125.521950,41.366058 
	C121.277390,33.902748 114.050117,32.561985 106.904419,37.549568 
	C105.832047,38.298065 104.846001,39.279186 103.659348,39.707016 
	C103.103058,39.907570 102.168633,39.038303 101.392120,38.683319 
	C101.319145,38.649960 101.067459,38.922016 101.036476,38.894894 
	C100.370003,38.311626 99.648819,37.766472 99.094917,37.086323 
	C98.607567,36.487888 98.486427,35.451317 97.904594,35.090973 
	C90.644470,30.594604 83.156708,26.599733 74.244980,27.053991 
	C65.742622,27.487385 61.882221,32.090252 61.835239,40.611465 
	C61.822945,42.841049 60.061852,45.060993 58.767700,46.720238 
z"/>
<path fill="#F5F5F5" opacity="1.000000" stroke="none" 
	d="
M59.103909,47.285362 
	C60.061852,45.060993 61.822945,42.841049 61.835239,40.611465 
	C61.882221,32.090252 65.742622,27.487385 74.244980,27.053991 
	C83.156708,26.599733 90.644470,30.594604 97.904594,35.090973 
	C98.486427,35.451317 98.607567,36.487888 99.094917,37.086323 
	C99.648819,37.766472 100.370003,38.311626 101.036476,38.894894 
	C101.067459,38.922016 101.319145,38.649960 101.392120,38.683319 
	C102.168633,39.038303 103.103058,39.907570 103.659348,39.707016 
	C104.846001,39.279186 105.832047,38.298065 106.904419,37.549568 
	C114.050117,32.561985 121.277390,33.902748 125.521950,41.366058 
	C130.412399,49.965042 130.758362,59.443756 129.878876,68.995468 
	C129.757904,70.309311 128.390762,71.508408 127.341843,73.170616 
	C129.591400,73.865074 131.461121,74.268219 133.187836,75.006050 
	C139.952438,77.896637 142.774963,83.949226 139.434616,90.451630 
	C133.867004,101.289711 125.730881,109.066475 112.147011,109.275856 
	C112.569633,111.660042 113.116432,113.996735 113.378677,116.364922 
	C114.153458,123.361412 110.208000,128.444427 103.265472,129.208664 
	C93.063187,130.331741 84.439133,126.038124 76.347122,120.619629 
	C74.775520,119.567276 74.285423,116.899788 73.308510,115.000710 
	C72.607803,115.310814 72.241226,115.355835 72.078575,115.561844 
	C63.875465,125.951614 51.929455,124.467361 47.299316,109.530006 
	C45.043228,102.251617 43.814377,94.733673 46.048630,87.138359 
	C46.816422,84.528267 45.997513,83.175301 43.443817,82.140953 
	C34.466499,78.504799 31.679056,70.648399 37.606689,62.988041 
	C41.560184,57.878895 47.324394,54.170883 52.919231,49.945633 
	C52.650585,51.239616 51.745213,52.427082 50.830540,53.607342 
	C47.403130,58.029934 43.356030,62.114830 40.717907,66.966187 
	C38.112843,71.756744 40.374496,74.863098 46.589031,76.100487 
	C47.123077,64.939270 51.995525,55.598709 59.103909,47.285362 
M121.172981,105.542427 
	C125.592659,100.479561 130.694290,95.846039 134.231537,90.227608 
	C137.475327,85.075272 135.292542,81.892708 130.659729,80.892220 
	C126.960182,89.065956 123.392326,96.948730 119.259048,105.053719 
	C118.883537,105.555206 118.508034,106.056686 118.132523,106.558174 
	C118.323738,106.728096 118.514946,106.898010 118.706161,107.067932 
	C119.320671,106.659096 119.935181,106.250259 121.172981,105.542427 
M64.500427,110.267174 
	C65.731010,109.837456 67.585228,109.777435 68.093750,108.919647 
	C72.246544,101.914635 73.481071,94.117126 74.170959,84.746819 
	C68.852501,84.298462 63.836018,83.329559 58.889881,83.608414 
	C53.689575,83.901604 51.663712,86.887108 53.595116,91.717255 
	C55.710487,97.007477 59.098358,101.786400 61.896709,106.807632 
	C62.656078,108.170212 63.289146,109.603180 63.318188,111.251282 
	C56.245293,105.965675 51.057102,99.174774 47.175980,91.110786 
	C47.866886,96.654129 48.890514,102.010422 50.773121,107.045540 
	C51.888737,110.029312 53.897236,113.130577 56.392757,114.980301 
	C57.926151,116.116875 61.163265,115.137230 63.563274,114.706322 
	C63.886585,114.648270 63.787430,112.237228 64.500427,110.267174 
M111.430046,45.856033 
	C120.137932,50.259548 124.584702,58.025555 127.983658,66.726913 
	C127.476494,57.908062 126.523804,49.236305 120.090080,42.444370 
	C116.150917,38.285870 111.667755,39.532841 109.287125,45.203278 
	C102.889366,52.463886 102.426163,61.505581 101.168182,70.858147 
	C104.731468,71.851395 107.881180,73.353745 111.071396,73.445351 
	C114.349297,73.539474 119.161407,73.307587 120.574402,71.299232 
	C122.203323,68.983978 121.924377,64.053467 120.550606,61.177357 
	C118.085251,56.015953 114.182877,51.540947 111.430046,45.856033 
M123.394272,79.849503 
	C115.918060,81.548531 108.441856,83.247559 99.444031,85.292389 
	C102.211555,91.441292 103.851730,96.258453 106.434196,100.502182 
	C109.164497,104.988823 111.759560,105.053078 115.832184,101.755440 
	C122.120728,96.663544 124.373154,89.283325 126.705276,82.011772 
	C126.839798,81.592331 125.137878,80.583900 123.394272,79.849503 
M77.460365,106.298676 
	C76.244232,111.406288 77.703926,113.716843 83.189842,115.045380 
	C90.849518,116.900330 98.307823,115.541451 106.264519,113.577621 
	C101.889091,104.782616 94.879173,99.228065 86.380638,93.328323 
	C83.394173,97.625061 80.621300,101.614494 77.460365,106.298676 
M52.596317,64.228928 
	C51.028965,68.294762 49.461617,72.360603 47.426884,77.638870 
	C53.281025,76.656891 57.933151,76.291977 62.343094,75.060097 
	C76.435768,71.123398 77.120232,69.511513 68.777512,55.774799 
	C66.323921,51.734840 62.969292,51.982094 60.052711,54.712364 
	C57.317547,57.272812 55.286484,60.585403 52.596317,64.228928 
M93.873863,42.175236 
	C85.661232,39.674057 77.646828,40.867348 68.071312,43.492081 
	C72.900848,48.741524 76.720261,53.478458 81.142197,57.563118 
	C87.887115,63.793568 90.569092,63.224392 95.570435,55.335270 
	C96.359596,54.090446 96.778481,52.615757 97.519424,51.334595 
	C99.876045,47.259766 98.558533,44.467140 93.873863,42.175236 
M90.561356,124.127075 
	C94.004585,124.372169 97.505974,125.131378 100.878334,124.749931 
	C106.955795,124.062508 108.501740,120.994278 106.729752,115.971252 
	C97.649727,117.627151 88.715698,119.256416 80.111221,120.825592 
	C82.975288,121.777985 86.349968,122.900177 90.561356,124.127075 
M91.821754,34.569321 
	C85.972977,33.669743 80.126640,32.091091 74.274712,32.070145 
	C68.904297,32.050922 67.307190,35.380016 68.780121,41.495979 
	C77.463249,37.883568 86.349533,35.376926 96.184067,36.746937 
	C94.973488,36.125614 93.762901,35.504295 91.821754,34.569321 
M82.947189,76.064194 
	C82.921158,76.889343 82.948906,77.720322 82.860054,78.538651 
	C82.405075,82.729187 85.725739,83.952995 88.374252,83.611748 
	C91.228630,83.243965 93.624519,80.963570 92.675880,77.099190 
	C91.723000,73.217552 87.882927,72.435440 82.947189,76.064194 
z"/>
<path fill="#0C0C0C" opacity="1.000000" stroke="none" 
	d="
M58.935806,47.002800 
	C51.995525,55.598709 47.123077,64.939270 46.589031,76.100487 
	C40.374496,74.863098 38.112843,71.756744 40.717907,66.966187 
	C43.356030,62.114830 47.403130,58.029934 50.830540,53.607342 
	C51.745213,52.427082 52.650585,51.239616 53.273079,49.869621 
	C54.913185,48.695934 56.840443,47.708088 58.935806,47.002800 
z"/>
<path fill="#050505" opacity="1.000000" stroke="none" 
	d="
M123.842445,79.849541 
	C125.137878,80.583900 126.839798,81.592331 126.705276,82.011772 
	C124.373154,89.283325 122.120728,96.663544 115.832184,101.755440 
	C111.759560,105.053078 109.164497,104.988823 106.434196,100.502182 
	C103.851730,96.258453 102.211555,91.441292 99.444031,85.292389 
	C108.441856,83.247559 115.918060,81.548531 123.842445,79.849541 
z"/>
<path fill="#070707" opacity="1.000000" stroke="none" 
	d="
M77.654404,105.951294 
	C80.621300,101.614494 83.394173,97.625061 86.380638,93.328323 
	C94.879173,99.228065 101.889091,104.782616 106.264519,113.577621 
	C98.307823,115.541451 90.849518,116.900330 83.189842,115.045380 
	C77.703926,113.716843 76.244232,111.406288 77.654404,105.951294 
z"/>
<path fill="#060606" opacity="1.000000" stroke="none" 
	d="
M52.770950,63.897972 
	C55.286484,60.585403 57.317547,57.272812 60.052711,54.712364 
	C62.969292,51.982094 66.323921,51.734840 68.777512,55.774799 
	C77.120232,69.511513 76.435768,71.123398 62.343094,75.060097 
	C57.933151,76.291977 53.281025,76.656891 47.426884,77.638870 
	C49.461617,72.360603 51.028965,68.294762 52.770950,63.897972 
z"/>
<path fill="#050505" opacity="1.000000" stroke="none" 
	d="
M110.881012,46.779106 
	C114.182877,51.540947 118.085251,56.015953 120.550606,61.177357 
	C121.924377,64.053467 122.203323,68.983978 120.574402,71.299232 
	C119.161407,73.307587 114.349297,73.539474 111.071396,73.445351 
	C107.881180,73.353745 104.731468,71.851395 101.168182,70.858147 
	C102.426163,61.505581 102.889366,52.463886 109.638412,45.072922 
	C109.989693,44.942562 109.921539,44.953842 109.928024,45.311646 
	C110.291870,45.981541 110.649231,46.293625 110.994370,46.642746 
	C110.982155,46.679779 110.881012,46.779106 110.881012,46.779106 
z"/>
<path fill="#050505" opacity="1.000000" stroke="none" 
	d="
M94.231178,42.351791 
	C98.558533,44.467140 99.876045,47.259766 97.519424,51.334595 
	C96.778481,52.615757 96.359596,54.090446 95.570435,55.335270 
	C90.569092,63.224392 87.887115,63.793568 81.142197,57.563118 
	C76.720261,53.478458 72.900848,48.741524 68.071312,43.492081 
	C77.646828,40.867348 85.661232,39.674057 94.231178,42.351791 
z"/>
<path fill="#060606" opacity="1.000000" stroke="none" 
	d="
M63.980183,111.003845 
	C63.289146,109.603180 62.656078,108.170212 61.896709,106.807632 
	C59.098358,101.786400 55.710487,97.007477 53.595116,91.717255 
	C51.663712,86.887108 53.689575,83.901604 58.889881,83.608414 
	C63.836018,83.329559 68.852501,84.298462 74.170959,84.746819 
	C73.481071,94.117126 72.246544,101.914635 68.093750,108.919647 
	C67.585228,109.777435 65.731010,109.837456 64.203819,110.627052 
	C63.907211,110.986931 63.980183,111.003845 63.980183,111.003845 
z"/>
<path fill="#0C0C0C" opacity="1.000000" stroke="none" 
	d="
M111.155533,46.317570 
	C110.881012,46.779106 110.982155,46.679779 111.363907,46.192581 
	C111.137627,45.454868 110.529579,45.204353 109.921539,44.953842 
	C109.921539,44.953842 109.989693,44.942562 109.989555,44.976624 
	C111.667755,39.532841 116.150917,38.285870 120.090080,42.444370 
	C126.523804,49.236305 127.476494,57.908062 127.983658,66.726913 
	C124.584702,58.025555 120.137932,50.259548 111.155533,46.317570 
z"/>
<path fill="#0D0D0D" opacity="1.000000" stroke="none" 
	d="
M63.895554,110.951340 
	C63.787430,112.237228 63.886585,114.648270 63.563274,114.706322 
	C61.163265,115.137230 57.926151,116.116875 56.392757,114.980301 
	C53.897236,113.130577 51.888737,110.029312 50.773121,107.045540 
	C48.890514,102.010422 47.866886,96.654129 47.175980,91.110786 
	C51.057102,99.174774 56.245293,105.965675 63.649185,111.127563 
	C63.980183,111.003845 63.907211,110.986931 63.895554,110.951340 
z"/>
<path fill="#0C0C0C" opacity="1.000000" stroke="none" 
	d="
M90.142998,124.074722 
	C86.349968,122.900177 82.975288,121.777985 80.111221,120.825592 
	C88.715698,119.256416 97.649727,117.627151 106.729752,115.971252 
	C108.501740,120.994278 106.955795,124.062508 100.878334,124.749931 
	C97.505974,125.131378 94.004585,124.372169 90.142998,124.074722 
z"/>
<path fill="#0C0C0C" opacity="1.000000" stroke="none" 
	d="
M119.824478,104.831505 
	C123.392326,96.948730 126.960182,89.065956 130.659729,80.892220 
	C135.292542,81.892708 137.475327,85.075272 134.231537,90.227608 
	C130.694290,95.846039 125.592659,100.479561 120.690308,105.432068 
	C120.079910,105.158318 119.952194,104.994911 119.824478,104.831505 
z"/>
<path fill="#0A0A0A" opacity="1.000000" stroke="none" 
	d="
M92.187035,34.726147 
	C93.762901,35.504295 94.973488,36.125614 96.184067,36.746937 
	C86.349533,35.376926 77.463249,37.883568 68.780121,41.495979 
	C67.307190,35.380016 68.904297,32.050922 74.274712,32.070145 
	C80.126640,32.091091 85.972977,33.669743 92.187035,34.726147 
z"/>
<path fill="#0C0C0C" opacity="1.000000" stroke="none" 
	d="
M83.137199,75.699600 
	C87.882927,72.435440 91.723000,73.217552 92.675880,77.099190 
	C93.624519,80.963570 91.228630,83.243965 88.374252,83.611748 
	C85.725739,83.952995 82.405075,82.729187 82.860054,78.538651 
	C82.948906,77.720322 82.921158,76.889343 83.137199,75.699600 
z"/>
<path fill="#0C0C0C" opacity="1.000000" stroke="none" 
	d="
M120.378662,105.581566 
	C119.935181,106.250259 119.320671,106.659096 118.706161,107.067932 
	C118.514946,106.898010 118.323738,106.728096 118.132523,106.558174 
	C118.508034,106.056686 118.883537,105.555206 119.541763,104.942612 
	C119.952194,104.994911 120.079910,105.158318 120.378662,105.581566 
z"/>
<path fill="#F5F5F5" opacity="1.000000" stroke="none" 
	d="
M109.928024,45.311646 
	C110.529579,45.204353 111.137627,45.454868 111.376129,46.155544 
	C110.649231,46.293625 110.291870,45.981541 109.928024,45.311646 
z"/>
</svg>