<svg xmlns="http://www.w3.org/2000/svg" xmlns:xlink="http://www.w3.org/1999/xlink" width="500" zoomAndPan="magnify" viewBox="0 0 375 374.999991" height="500" preserveAspectRatio="xMidYMid meet" version="1.0"><defs><g/></defs><g fill="#000000" fill-opacity="1"><g transform="translate(72.420109, 201.374987)"><g><path d="M 3.078125 -42.25 L 16.1875 -42.25 C 20.144531 -42.25 23.300781 -41.398438 25.65625 -39.703125 C 28.007812 -38.015625 29.1875 -35.273438 29.1875 -31.484375 C 29.1875 -27.253906 27.425781 -24.234375 23.90625 -22.421875 C 29.914062 -21.367188 32.921875 -17.820312 32.921875 -11.78125 C 32.921875 -8.226562 31.691406 -5.375 29.234375 -3.21875 C 26.773438 -1.070312 23.394531 0 19.09375 0 L 3.078125 0 Z M 12.703125 -25.703125 L 13.46875 -25.703125 C 15.613281 -25.703125 17.210938 -26.078125 18.265625 -26.828125 C 19.328125 -27.578125 19.859375 -28.804688 19.859375 -30.515625 C 19.859375 -33.378906 17.726562 -34.8125 13.46875 -34.8125 L 12.703125 -34.8125 Z M 12.703125 -7.421875 L 15.71875 -7.421875 C 20.425781 -7.421875 22.78125 -8.992188 22.78125 -12.140625 C 22.78125 -14.015625 22.191406 -15.359375 21.015625 -16.171875 C 19.835938 -16.992188 18.070312 -17.40625 15.71875 -17.40625 L 12.703125 -17.40625 Z M 12.703125 -7.421875 "/></g></g></g><g fill="#000000" fill-opacity="1"><g transform="translate(101.704674, 201.374987)"><g><path d="M 4.859375 -3.25 C 2.398438 -5.925781 1.171875 -9.207031 1.171875 -13.09375 C 1.171875 -16.988281 2.398438 -20.285156 4.859375 -22.984375 C 7.316406 -25.679688 10.441406 -27.03125 14.234375 -27.03125 C 17.710938 -27.03125 20.582031 -25.941406 22.84375 -23.765625 L 22.84375 -26.265625 L 31.90625 -26.265625 L 31.90625 0 L 22.9375 0 L 22.9375 -2.96875 L 22.84375 -2.96875 C 20.582031 -0.476562 17.710938 0.765625 14.234375 0.765625 C 10.441406 0.765625 7.316406 -0.570312 4.859375 -3.25 Z M 12.5625 -17.5625 C 11.382812 -16.40625 10.796875 -14.921875 10.796875 -13.109375 C 10.796875 -11.296875 11.359375 -9.816406 12.484375 -8.671875 C 13.617188 -7.535156 15.109375 -6.96875 16.953125 -6.96875 C 18.722656 -6.96875 20.179688 -7.546875 21.328125 -8.703125 C 22.472656 -9.867188 23.046875 -11.335938 23.046875 -13.109375 C 23.046875 -14.921875 22.457031 -16.40625 21.28125 -17.5625 C 20.101562 -18.71875 18.660156 -19.296875 16.953125 -19.296875 C 15.210938 -19.296875 13.75 -18.71875 12.5625 -17.5625 Z M 12.5625 -17.5625 "/></g></g></g><g fill="#000000" fill-opacity="1"><g transform="translate(131.859631, 201.374987)"><g><path d="M 30.109375 -22.984375 C 32.566406 -20.285156 33.796875 -16.988281 33.796875 -13.09375 C 33.796875 -9.207031 32.566406 -5.925781 30.109375 -3.25 C 27.648438 -0.570312 24.523438 0.765625 20.734375 0.765625 C 17.253906 0.765625 14.390625 -0.476562 12.140625 -2.96875 L 12.03125 -2.96875 L 12.03125 0 L 3.078125 0 L 3.078125 -44.03125 L 12.140625 -44.03125 L 12.140625 -23.765625 C 14.390625 -25.941406 17.253906 -27.03125 20.734375 -27.03125 C 24.523438 -27.03125 27.648438 -25.679688 30.109375 -22.984375 Z M 22.46875 -8.671875 C 23.601562 -9.816406 24.171875 -11.296875 24.171875 -13.109375 C 24.171875 -14.921875 23.582031 -16.40625 22.40625 -17.5625 C 21.226562 -18.71875 19.769531 -19.296875 18.03125 -19.296875 C 16.320312 -19.296875 14.878906 -18.71875 13.703125 -17.5625 C 12.523438 -16.40625 11.9375 -14.921875 11.9375 -13.109375 C 11.9375 -11.335938 12.503906 -9.867188 13.640625 -8.703125 C 14.785156 -7.546875 16.25 -6.96875 18.03125 -6.96875 C 19.863281 -6.96875 21.34375 -7.535156 22.46875 -8.671875 Z M 22.46875 -8.671875 "/></g></g></g><g fill="#000000" fill-opacity="1"><g transform="translate(162.014588, 201.374987)"><g><path d="M 30.109375 -22.984375 C 32.566406 -20.285156 33.796875 -16.988281 33.796875 -13.09375 C 33.796875 -9.207031 32.566406 -5.925781 30.109375 -3.25 C 27.648438 -0.570312 24.523438 0.765625 20.734375 0.765625 C 17.253906 0.765625 14.390625 -0.476562 12.140625 -2.96875 L 12.03125 -2.96875 L 12.03125 0 L 3.078125 0 L 3.078125 -44.03125 L 12.140625 -44.03125 L 12.140625 -23.765625 C 14.390625 -25.941406 17.253906 -27.03125 20.734375 -27.03125 C 24.523438 -27.03125 27.648438 -25.679688 30.109375 -22.984375 Z M 22.46875 -8.671875 C 23.601562 -9.816406 24.171875 -11.296875 24.171875 -13.109375 C 24.171875 -14.921875 23.582031 -16.40625 22.40625 -17.5625 C 21.226562 -18.71875 19.769531 -19.296875 18.03125 -19.296875 C 16.320312 -19.296875 14.878906 -18.71875 13.703125 -17.5625 C 12.523438 -16.40625 11.9375 -14.921875 11.9375 -13.109375 C 11.9375 -11.335938 12.503906 -9.867188 13.640625 -8.703125 C 14.785156 -7.546875 16.25 -6.96875 18.03125 -6.96875 C 19.863281 -6.96875 21.34375 -7.535156 22.46875 -8.671875 Z M 22.46875 -8.671875 "/></g></g></g><g fill="#000000" fill-opacity="1"><g transform="translate(192.169545, 201.374987)"><g><path d="M 3.078125 0 L 3.078125 -44.03125 L 12.140625 -44.03125 L 12.140625 0 Z M 3.078125 0 "/></g></g></g><g fill="#000000" fill-opacity="1"><g transform="translate(202.561581, 201.374987)"><g><path d="M 29.640625 -11.875 L 10.59375 -11.875 C 10.59375 -10.03125 11.191406 -8.664062 12.390625 -7.78125 C 13.585938 -6.894531 14.882812 -6.453125 16.28125 -6.453125 C 17.75 -6.453125 18.910156 -6.644531 19.765625 -7.03125 C 20.617188 -7.425781 21.59375 -8.207031 22.6875 -9.375 L 29.234375 -6.09375 C 26.503906 -1.519531 21.960938 0.765625 15.609375 0.765625 C 11.648438 0.765625 8.253906 -0.585938 5.421875 -3.296875 C 2.585938 -6.015625 1.171875 -9.285156 1.171875 -13.109375 C 1.171875 -16.929688 2.585938 -20.207031 5.421875 -22.9375 C 8.253906 -25.664062 11.648438 -27.03125 15.609375 -27.03125 C 19.773438 -27.03125 23.164062 -25.828125 25.78125 -23.421875 C 28.394531 -21.015625 29.703125 -17.578125 29.703125 -13.109375 C 29.703125 -12.492188 29.679688 -12.082031 29.640625 -11.875 Z M 10.859375 -16.890625 L 20.84375 -16.890625 C 20.632812 -18.253906 20.09375 -19.300781 19.21875 -20.03125 C 18.351562 -20.769531 17.238281 -21.140625 15.875 -21.140625 C 14.375 -21.140625 13.175781 -20.75 12.28125 -19.96875 C 11.394531 -19.1875 10.921875 -18.160156 10.859375 -16.890625 Z M 10.859375 -16.890625 "/></g></g></g><g fill="#000000" fill-opacity="1"><g transform="translate(228.6206, 201.374987)"><g><path d="M 1.171875 -21.140625 C 1.171875 -27.253906 3.253906 -32.425781 7.421875 -36.65625 C 11.585938 -40.894531 16.609375 -43.015625 22.484375 -43.015625 C 28.390625 -43.015625 33.40625 -40.90625 37.53125 -36.6875 C 41.664062 -32.46875 43.734375 -27.285156 43.734375 -21.140625 C 43.734375 -14.960938 41.703125 -9.765625 37.640625 -5.546875 C 33.578125 -1.335938 28.523438 0.765625 22.484375 0.765625 C 16.296875 0.765625 11.195312 -1.320312 7.1875 -5.5 C 3.175781 -9.6875 1.171875 -14.898438 1.171875 -21.140625 Z M 11.578125 -21.140625 C 11.578125 -18.921875 11.914062 -16.898438 12.59375 -15.078125 C 13.28125 -13.253906 14.472656 -11.707031 16.171875 -10.4375 C 17.878906 -9.175781 19.984375 -8.546875 22.484375 -8.546875 C 26.066406 -8.546875 28.769531 -9.773438 30.59375 -12.234375 C 32.414062 -14.691406 33.328125 -17.660156 33.328125 -21.140625 C 33.328125 -24.585938 32.394531 -27.550781 30.53125 -30.03125 C 28.675781 -32.507812 25.992188 -33.75 22.484375 -33.75 C 18.992188 -33.75 16.300781 -32.507812 14.40625 -30.03125 C 12.519531 -27.550781 11.578125 -24.585938 11.578125 -21.140625 Z M 11.578125 -21.140625 "/></g></g></g><g fill="#000000" fill-opacity="1"><g transform="translate(268.708221, 201.374987)"><g><path d="M 3.078125 0 L 3.078125 -26.265625 L 12.140625 -26.265625 L 12.140625 -23.5 L 12.234375 -23.5 C 14.585938 -25.851562 17.097656 -27.03125 19.765625 -27.03125 C 21.054688 -27.03125 22.34375 -26.859375 23.625 -26.515625 C 24.90625 -26.179688 26.132812 -25.65625 27.3125 -24.9375 C 28.488281 -24.21875 29.441406 -23.203125 30.171875 -21.890625 C 30.910156 -20.578125 31.28125 -19.050781 31.28125 -17.3125 L 31.28125 0 L 22.21875 0 L 22.21875 -14.84375 C 22.21875 -16.207031 21.78125 -17.398438 20.90625 -18.421875 C 20.039062 -19.453125 18.910156 -19.96875 17.515625 -19.96875 C 16.148438 -19.96875 14.910156 -19.4375 13.796875 -18.375 C 12.691406 -17.320312 12.140625 -16.144531 12.140625 -14.84375 L 12.140625 0 Z M 3.078125 0 "/></g></g></g></svg>